<svg xmlns="http://www.w3.org/2000/svg" xmlns:xlink="http://www.w3.org/1999/xlink" viewBox="0 0 500 500" width="500" height="500" preserveAspectRatio="xMidYMid meet" style="width: 100%; height: 100%; transform: translate3d(0px, 0px, 0px); content-visibility: visible;"><defs><clipPath id="__lottie_element_663"><rect width="500" height="500" x="0" y="0"/></clipPath></defs><g clip-path="url(#__lottie_element_663)"><g transform="matrix(0.12661203742027283,0,0,0.12661203742027283,362.02362060546875,250)" opacity="1" style="display: block;"><g opacity="1" transform="matrix(0.1237500011920929,0,0,0.1237500011920929,0,0)"><path fill="rgb(0,0,0)" fill-opacity="1" d=" M0,-250 C137.97500610351562,-250 250,-137.97500610351562 250,0 C250,137.97500610351562 137.97500610351562,250 0,250 C-137.97500610351562,250 -250,137.97500610351562 -250,0 C-250,-137.97500610351562 -137.97500610351562,-250 0,-250z"/></g></g><g transform="matrix(0.28366798162460327,0,0,0.28366798162460327,321.251708984375,250)" opacity="1" style="display: block;"><g opacity="1" transform="matrix(0.1237500011920929,0,0,0.1237500011920929,0,0)"><path fill="rgb(0,0,0)" fill-opacity="1" d=" M0,-250 C137.97500610351562,-250 250,-137.97500610351562 250,0 C250,137.97500610351562 137.97500610351562,250 0,250 C-137.97500610351562,250 -250,137.97500610351562 -250,0 C-250,-137.97500610351562 -137.97500610351562,-250 0,-250z"/></g></g><g transform="matrix(0.38977372646331787,0,0,0.38977372646331787,271.6248779296875,250)" opacity="1" style="display: block;"><g opacity="1" transform="matrix(0.1237500011920929,0,0,0.1237500011920929,0,0)"><path fill="rgb(0,0,0)" fill-opacity="1" d=" M0,-250 C137.97500610351562,-250 250,-137.97500610351562 250,0 C250,137.97500610351562 137.97500610351562,250 0,250 C-137.97500610351562,250 -250,137.97500610351562 -250,0 C-250,-137.97500610351562 -137.97500610351562,-250 0,-250z"/></g></g><g transform="matrix(0.3701639473438263,0,0,0.3701639473438263,219.45713806152344,250)" opacity="1" style="display: block;"><g opacity="1" transform="matrix(0.1237500011920929,0,0,0.1237500011920929,0,0)"><path fill="rgb(0,0,0)" fill-opacity="1" d=" M0,-250 C137.97500610351562,-250 250,-137.97500610351562 250,0 C250,137.97500610351562 137.97500610351562,250 0,250 C-137.97500610351562,250 -250,137.97500610351562 -250,0 C-250,-137.97500610351562 -137.97500610351562,-250 0,-250z"/></g></g><g transform="matrix(0.24149209260940552,0,0,0.24149209260940552,171.9698028564453,250)" opacity="1" style="display: block;"><g opacity="1" transform="matrix(0.1237500011920929,0,0,0.1237500011920929,0,0)"><path fill="rgb(0,0,0)" fill-opacity="1" d=" M0,-250 C137.97500610351562,-250 250,-137.97500610351562 250,0 C250,137.97500610351562 137.97500610351562,250 0,250 C-137.97500610351562,250 -250,137.97500610351562 -250,0 C-250,-137.97500610351562 -137.97500610351562,-250 0,-250z"/></g></g><g transform="matrix(0.08973338454961777,0,0,0.08973338454961777,136.38331604003906,250)" opacity="1" style="display: block;"><g opacity="1" transform="matrix(0.1237500011920929,0,0,0.1237500011920929,0,0)"><path fill="rgb(0,0,0)" fill-opacity="1" d=" M0,-250 C137.97500610351562,-250 250,-137.97500610351562 250,0 C250,137.97500610351562 137.97500610351562,250 0,250 C-137.97500610351562,250 -250,137.97500610351562 -250,0 C-250,-137.97500610351562 -137.97500610351562,-250 0,-250z"/></g></g><g transform="matrix(0.002192704938352108,0,0,0.002192704938352108,119.939208984375,250)" opacity="1" style="display: block;"><g opacity="1" transform="matrix(0.1237500011920929,0,0,0.1237500011920929,0,0)"><path fill="rgb(0,0,0)" fill-opacity="1" d=" M0,-250 C137.97500610351562,-250 250,-137.97500610351562 250,0 C250,137.97500610351562 137.97500610351562,250 0,250 C-137.97500610351562,250 -250,137.97500610351562 -250,0 C-250,-137.97500610351562 -137.97500610351562,-250 0,-250z"/></g></g></g></svg>